<svg height="480pt" viewBox="-63 0 479 480" width="480pt" xmlns="http://www.w3.org/2000/svg"><path d="m104.5 416 48 64h-144c-4.398438 0-8-3.609375-8-8v-56c0-35.359375 28.640625-64 64-64h40l16 48zm0 0" fill="#545c66"/><path d="m296.5 96v48l-32-32s-40 16-88 16-88-16-88-16l-32 32v-40c0-57.511719 46.558594-104 104-104h80v40c30.960938 0 56 25.046875 56 56zm0 0" fill="#965353"/><path d="m240.5 72c13.230469 0 24 10.769531 24 24v16l32 32v-48c0-30.953125-25.039062-56-56-56v-40h-32v40c0 17.671875 14.328125 32 32 32zm0 0" fill="#844747"/><path d="m176.5 128c48 0 88-16 88-16l32 32v39.921875h-32v-32h-176v32h-32v-39.921875l32-32s40 16 88 16zm0 0" fill="#eac6bb"/><path d="m240.476562 151.921875v56.078125c0 44.488281-33.054687 81.214844-75.976562 87.097656 3.929688.527344 7.921875.902344 12 .902344 48.640625 0 88-39.441406 88-88v-56.078125zm0 0" fill="#da4453"/><path d="m296.5 183.921875v24.078125c0 46-25.921875 86-64 106.078125v.082031c-16.71875 8.808594-35.761719 13.839844-56 13.839844s-39.28125-5.03125-56-13.839844v-.082031c-38.078125-20.078125-64-60.078125-64-106.078125v-24.078125h32v24.078125c0 48.558594 39.441406 88 88 88 48.640625 0 88-39.441406 88-88v-24.078125zm0 0" fill="#eac6bb"/><path d="m352.5 416v56c0 4.390625-3.519531 8-8 8h-144l48-64-16-16 16-48h40c35.359375 0 64 28.640625 64 64zm0 0" fill="#545c66"/><path d="m264.5 359.984375-32 40.015625 16 16-48 64h-24l24.878906-64 18.722656-48 12.398438-32zm0 0" fill="#656d78"/><path d="m152.5 357.199219 16 18.800781-16.878906 40-18.640625-48zm0 0" fill="#e6e9ed"/><path d="m220.101562 368-18.722656 48-16.878906-40 16-18.800781zm0 0" fill="#e6e9ed"/><path d="m232.5 336-12.398438 32-19.601562-10.800781-24-13.199219-24 13.199219-19.519531 10.800781-12.480469-32v-21.839844c16.71875 8.816406 35.761719 13.839844 56 13.839844s39.28125-5.03125 56-13.839844zm0 0" fill="#f5f7fa"/><path d="m200.5 357.199219-16 18.800781h-16l-16-18.800781 24-13.199219zm0 0" fill="#ed5565"/><path d="m184.5 376 16.878906 40-24.878906 64-24.878906-64 16.878906-40zm0 0" fill="#da4453"/><path d="m151.621094 416 24.878906 64h-24l-48-64 16-16-32-40.015625 32-23.984375 12.480469 32zm0 0" fill="#656d78"/><path d="m296.5 191.984375h-31.992188c-4.421874 0-8-3.578125-8-8 0-4.425781 3.578126-8 8-8h31.992188c4.425781 0 8 3.574219 8 8 0 4.421875-3.574219 8-8 8zm0 0" fill="#e6e9ed"/><path d="m88.5 191.984375h-32c-4.425781 0-8-3.578125-8-8 0-4.425781 3.574219-8 8-8h32c4.425781 0 8 3.574219 8 8 0 4.421875-3.574219 8-8 8zm0 0" fill="#e6e9ed"/><path d="m264.5 143.984375h-176c-4.425781 0-8 3.574219-8 8v56.015625c0 52.9375 43.0625 96 96 96s96-43.0625 96-96v-56.015625c0-4.425781-3.574219-8-8-8zm0 0" fill="#ed5565"/><g fill="#da4453"><path d="m176.5 272c-17.097656 0-33.167969-6.65625-45.257812-18.753906-3.125-3.125-3.125-8.183594 0-11.308594 3.128906-3.128906 8.1875-3.128906 11.3125 0 9.074218 9.078125 21.121093 14.0625 33.945312 14.0625s24.863281-4.984375 33.9375-14.0625c3.125-3.128906 8.183594-3.128906 11.308594 0 3.128906 3.125 3.128906 8.183594 0 11.308594-12.078125 12.097656-28.148438 18.753906-45.246094 18.753906zm0 0"/><path d="m160.515625 208c-4.421875 0-8-3.574219-8-8 0-4.40625-3.582031-8-8-8-4.414063 0-8 3.59375-8 8 0 4.425781-3.574219 8-8 8-4.421875 0-8-3.574219-8-8 0-13.230469 10.769531-24 24-24s24 10.769531 24 24c0 4.425781-3.574219 8-8 8zm0 0"/><path d="m224.507812 208c-4.421874 0-8-3.574219-8-8 0-4.40625-3.582031-8-8-8-4.414062 0-8 3.59375-8 8 0 4.425781-3.574218 8-8 8-4.421874 0-8-3.574219-8-8 0-13.230469 10.769532-24 24-24 13.230469 0 24 10.769531 24 24 0 4.425781-3.574218 8-8 8zm0 0"/></g></svg>